# xmcd
# 
# Track frame offsets:
#     150
#     18035
#     33974
#     55652
#     77497
#     97023
#     121675
#     141308
#     159405
#     181404
#     197290
#     218852
#     250791
# 
# Disc length: 4093
# 
# Revision: 3
# Processed by: cddbd v1.5.2PL0 Copyright (c) Steve Scherf et al.
# Submitted via: fre:ac v1.0.31
# 
DISCID=9b0ffb0d
DTITLE=Dr. Dre - The Chronicle - The Best Of The Works...
DYEAR=2001
DGENRE=Hip-Hop
TTITLE0=Dr. Dre feat. Snoop Doggy Dogg - Nuthin' But A G Thang
TTITLE1=Snoop Doggy Dogg with Dat Nigga Daz - Gin and Juice
TTITLE2=The Lady Of Rage with Snoop Doggy Dog - Afro Puffs
TTITLE3=Dr. Dre and Ice Cube - Natural Born Killaz
TTITLE4=Snoop Doggy Dogg - Murder Was The Case
TTITLE5=Dr. Dre feat. Snoop Doggy Dogg with Dat Niggaz Daz - Lil' Ghetto Boy
TTITLE6=Dr. Dre with Ruben and Jewell - Let Me Ride
TTITLE7=2Pac feat. Dr. Dre - California Love
TTITLE8=Dr. Dre feat. Snoop Doggy Dogg with RBX and Jewell - Fuck Wit Dre Day (And Everybody's Celebratin')
TTITLE9=Snoop Doggy Dogg feat. D.O.C., RBX and Tha Dogg Pound - Serial Killa
TTITLE10=Bushwick Bill, Kurupt, RBX, The Lady Of Rage and Snoop Doggy Dogg - Stranded On Death Row
TTITLE11=Dr. Dre feat. Snoop Doggy Dogg - Nuthin' But A G Thang [Remix]
TTITLE12=DATA
EXTD=
EXTT0=
EXTT1=
EXTT2=
EXTT3=
EXTT4=
EXTT5=
EXTT6=
EXTT7=
EXTT8=
EXTT9=
EXTT10=
EXTT11=
EXTT12=
PLAYORDER=
